<svg width="127" height="89" fill="none" xmlns="http://www.w3.org/2000/svg"><path transform="rotate(90,null,null)" d="M34.036 12.175l-2.463-5.93 6.32 1.144c6.075 1.1 13.105 4.457 18.152 9.798 3.492-5.318 7.71-10.122 12.86-14.248l5.33 4.274c-1.683 3.427-2.446 6.163-2.736 9.268 4.65-1.517 10.476-2.42 17.54-2l10.497.627-8.78 5.79c-1.838 1.212-3.457 2.39-4.868 3.547 5.557-.008 11.53 1.22 18.5 3.75l8.641 3.136-8.539 3.405c-4.048 1.613-6.9 3.6-9.742 6.257 5.784 1.87 11.2 5.052 15.125 8.463l6.948 6.037-9.204.104c-4.813.055-10.481.189-15.407.84 2.173 3.663 3.629 7.818 4.406 12.416l1.719 10.172-7.554-7.026c-5.45-5.068-12.247-8.917-20.52-11.508l-3.637-1.138c-2.908 1.49-5.755 3.255-8.543 5.218l.98.852-1.915-.185c-5.844 4.226-11.43 9.3-16.784 14.534l-1.345 1.314-1.839-.396c-2.729-.588-5.132-1.18-7.32-1.867l-1.207-.378-.686-1.062-2.501-3.872-.164-.254-1.392-.124-7.353-.658-.79-.07-.682-.405a459.216 459.216 0 01-2.868-1.72c-.923-.555-1.884-1.134-2.857-1.714l-3.464-2.063 2.529-3.14c5.346-6.636 11.456-11.874 16.971-16.602a507.744 507.744 0 003.052-2.63A36.148 36.148 0 0139.92 26.268a5837.723 5837.723 0 01-5.883-14.091z" stroke-width="7" stroke="#8f6f3e">
    </path></svg>